#!OML:ASF F:\VICON\USERDATA\INSTALL\rory3\rory3.ASF
:FULLY-SPECIFIED
:DEGREES
494
root -11.047 17.8445 5.98191 -2.12077 -48.3584 5.46869
lowerback 3.86314 2.65191 -6.45882
upperback 2.18093 3.2529 -3.10574
thorax -0.0919234 1.56637 0.281539
lowerneck -8.17967 1.33652 -4.63174
upperneck 34.3079 2.64413 -0.797597
head 12.7168 0.254333 0.797529
rclavicle 4.87022e-014 -2.46493e-014
rhumerus -34.5906 -4.14646 -81.1807
rradius 28.7583
rwrist -3.47343
rhand -11.1035 15.8093
rfingers 7.12502
rthumb 14.9208 -13.6333
lclavicle 4.87022e-014 -2.46493e-014
lhumerus -32.3961 -4.2103 77.4102
lradius 43.7378
lwrist 16.9705
lhand -5.54144 27.3017
lfingers 7.12502
lthumb 20.2731 56.2637
rfemur -29.5427 -2.63401 18.3494
rtibia 66.4102
rfoot -10.4811 -1.27655
rtoes -24.9729
lfemur -12.7976 -1.51044 -29.4045
ltibia 22.2272
lfoot -13.3293 11.1962
ltoes -9.43262
495
root -11.0852 17.8364 6.01668 -2.03749 -47.9141 5.38734
lowerback 3.87712 2.61201 -6.44696
upperback 2.20254 3.20107 -3.08164
thorax -0.0754347 1.54005 0.302194
lowerneck -8.08459 1.30691 -4.62444
upperneck 34.2563 2.58762 -0.773179
head 12.6753 0.237338 0.797772
rclavicle -6.40087e-014 3.89618e-014
rhumerus -34.5215 -3.97175 -81.2816
rradius 29.0199
rwrist -3.61927
rhand -11.0725 15.6649
rfingers 7.12502
rthumb 14.9507 -13.7754
lclavicle -6.40087e-014 3.89618e-014
lhumerus -32.2676 -4.17877 77.3208
lradius 44.175
lwrist 17.4815
lhand -5.28554 27.3673
lfingers 7.12502
lthumb 20.519 56.3029
rfemur -29.8593 -2.21468 18.4246
rtibia 65.4985
rfoot -10.6154 -1.32339
rtoes -25.3314
lfemur -12.7421 -1.52576 -29.4005
ltibia 22.4564
lfoot -13.5147 10.6854
ltoes -9.34285
496
root -11.1242 17.8284 6.05315 -2.13033 -47.4289 5.46143
lowerback 3.90341 2.56728 -6.53418
upperback 2.27233 3.14013 -3.07622
thorax -0.0193647 1.50617 0.359338
lowerneck -7.99016 1.27696 -4.6703
upperneck 34.1979 2.52827 -0.706144
head 12.6296 0.218011 0.823445
rclavicle -1.10524e-013 4.6118e-014
rhumerus -34.4212 -3.77211 -81.3591
rradius 29.2512
rwrist -3.76884
rhand -10.9952 15.7141
rfingers 7.12502
rthumb 15.0252 -13.7207
lclavicle -1.10524e-013 4.6118e-014
lhumerus -32.1019 -4.14459 77.2819
lradius 44.5277
lwrist 17.5673
lhand -5.19457 27.5264
lfingers 7.12502
lthumb 20.6065 56.4526
rfemur -30.072 -1.83324 18.3282
rtibia 64.5482
rfoot -10.8423 -1.32711
rtoes -25.0415
lfemur -12.5772 -1.48956 -29.5274
ltibia 22.6554
lfoot -13.6193 10.4082
ltoes -10.7466
497
root -11.1605 17.8206 6.08769 -2.01938 -46.9519 5.37183
lowerback 3.91748 2.5377 -6.49951
upperback 2.28328 3.10246 -3.04504
thorax -0.0138666 1.48765 0.373731
lowerneck -7.92265 1.24218 -4.65013
upperneck 34.2189 2.47337 -0.708421
head 12.6257 0.197339 0.811925
rclavicle 8.13029e-014 1.59028e-014
rhumerus -34.3294 -3.80076 -81.3283
rradius 29.4139
rwrist -3.69167
rhand -10.8064 15.8522
rfingers 7.12502
rthumb 15.207 -13.5689
lclavicle 8.13029e-014 1.59028e-014
lhumerus -32.0488 -4.32869 77.3456
lradius 44.9076
lwrist 17.4658
lhand -4.99222 27.7484
lfingers 7.12502
lthumb 20.8009 56.6534
rfemur -30.3484 -1.38362 18.3483
rtibia 63.5594
rfoot -11.1722 -1.47188
rtoes -25.6599
lfemur -12.4977 -1.59775 -29.5199
ltibia 22.7742
lfoot -13.6665 10.248
ltoes -12.0363
498
root -11.197 17.8143 6.11903 -1.7706 -46.5214 5.13012
lowerback 3.95936 2.48975 -6.41468
upperback 2.2541 3.03837 -2.96018
thorax -0.0645026 1.45862 0.414596
lowerneck -7.89773 1.23897 -4.66162
upperneck 34.2978 2.46864 -0.695269
head 12.6537 0.193958 0.818659
rclavicle -2.64384e-014 1.82882e-014
rhumerus -34.2099 -3.74822 -81.3383
rradius 29.5152
rwrist -3.61866
rhand -10.8589 15.8609
rfingers 7.12502
rthumb 15.1564 -13.5641
lclavicle -2.64384e-014 1.82882e-014
lhumerus -32.1169 -4.44048 77.4561
lradius 45.3602
lwrist 17.5913
lhand -5.10309 27.8108
lfingers 7.12502
lthumb 20.6944 56.7275
rfemur -30.6126 -0.842084 18.4688
rtibia 62.5042
rfoot -11.4591 -1.59707
rtoes -26.3129
lfemur -12.4855 -1.75554 -29.3647
ltibia 22.8696
lfoot -13.7026 10.0635
ltoes -12.6684
499
root -11.2365 17.8139 6.15403 -1.72864 -46.1533 5.09559
lowerback 3.98298 2.49533 -6.43713
upperback 2.25774 3.04393 -2.92254
thorax -0.0773345 1.46157 0.464399
lowerneck -7.92934 1.19413 -4.73112
upperneck 34.4166 2.3999 -0.616637
head 12.7105 0.161918 0.853596
rclavicle 5.37713e-014 -1.27222e-014
rhumerus -34.0968 -3.83992 -81.2902
rradius 29.5712
rwrist -3.4191
rhand -10.7397 15.8997
rfingers 7.12502
rthumb 15.2712 -13.5166
lclavicle 5.37713e-014 -1.27222e-014
lhumerus -32.1645 -4.59038 77.5807
lradius 45.8019
lwrist 17.8129
lhand -5.42668 27.609
lfingers 7.12502
lthumb 20.3834 56.5592
rfemur -30.8207 -0.254377 18.4109
rtibia 61.4028
rfoot -11.8423 -1.75708
rtoes -26.6769
lfemur -12.3786 -1.96167 -29.3519
ltibia 23.0094
lfoot -13.9351 9.78496
ltoes -11.8767
500
root -11.2745 17.8176 6.18976 -1.74472 -45.7644 5.09702
lowerback 4.03042 2.51839 -6.43079
upperback 2.29079 3.07273 -2.90524
thorax -0.0718553 1.47532 0.475968
lowerneck -8.00798 1.11668 -4.84432
upperneck 34.5532 2.28979 -0.513394
head 12.7855 0.108849 0.901198
rclavicle -4.77083e-015 -5.56597e-015
rhumerus -33.9675 -3.9568 -81.1988
rradius 29.6446
rwrist -3.15883
rhand -10.5702 16.0251
rfingers 7.12502
rthumb 15.4345 -13.3786
lclavicle -4.77083e-015 -5.56597e-015
lhumerus -32.1491 -4.82077 77.683
lradius 46.2057
lwrist 17.9074
lhand -5.5353 27.5076
lfingers 7.12502
lthumb 20.279 56.4689
rfemur -30.9836 0.281045 18.3057
rtibia 60.2341
rfoot -12.1017 -1.81133
rtoes -26.4959
lfemur -12.2203 -2.23771 -29.3689
ltibia 23.149
lfoot -14.1356 9.49999
ltoes -11.0107
501
root -11.3108 17.8191 6.21961 -1.58402 -45.325 4.94248
lowerback 4.08041 2.51683 -6.31409
upperback 2.29748 3.07186 -2.8721
thorax -0.0889455 1.47654 0.443632
lowerneck -7.98951 1.04397 -4.93674
upperneck 34.5945 2.18689 -0.449562
head 12.8001 0.0604508 0.929586
rclavicle 3.97569e-016 1.51076e-014
rhumerus -33.8215 -3.9933 -81.1919
rradius 29.7139
rwrist -3.13662
rhand -10.5302 16.2122
rfingers 7.12502
rthumb 15.473 -13.1885
lclavicle 3.97569e-016 1.51076e-014
lhumerus -32.0995 -5.15987 77.7843
lradius 46.5952
lwrist 18.2074
lhand -5.61863 27.6179
lfingers 7.12502
lthumb 20.1989 56.5877
rfemur -31.1387 0.754916 18.323
rtibia 58.998
rfoot -12.1493 -1.86501
rtoes -26.7808
lfemur -12.1591 -2.53483 -29.2648
ltibia 23.2455
lfoot -14.2406 9.40033
ltoes -11.4621
502
root -11.3476 17.8195 6.24849 -1.44874 -44.9101 4.86904
lowerback 4.08574 2.51253 -6.29964
upperback 2.28188 3.06646 -2.83813
thorax -0.108896 1.47499 0.470186
lowerneck -7.88209 0.995659 -4.93405
upperneck 34.5889 2.11812 -0.468717
head 12.7772 0.0304791 0.912413
rclavicle 1.19271e-015 3.81667e-014
rhumerus -33.7425 -3.79835 -81.2879
rradius 29.9009
rwrist -3.44939
rhand -10.5278 16.209
rfingers 7.12502
rthumb 15.4753 -13.1916
lclavicle 1.19271e-015 3.81667e-014
lhumerus -32.0942 -5.45449 77.9021
lradius 46.9295
lwrist 18.6607
lhand -5.809 27.6086
lfingers 7.12502
lthumb 20.016 56.5976
rfemur -31.2812 1.25898 18.2462
rtibia 57.7123
rfoot -12.3864 -1.8791
rtoes -27.5002
lfemur -12.1643 -2.71094 -29.2241
ltibia 23.3896
lfoot -14.4694 9.23019
ltoes -11.3986
503
root -11.3859 17.8188 6.2802 -1.36577 -44.5344 4.83429
lowerback 4.09379 2.51587 -6.32981
upperback 2.2605 3.06889 -2.80361
thorax -0.138964 1.47722 0.52122
lowerneck -7.7624 0.956442 -4.9094
upperneck 34.5952 2.05957 -0.497364
head 12.7568 0.00599897 0.888943
rclavicle 5.02925e-014 -5.32743e-014
rhumerus -33.6968 -3.72256 -81.328
rradius 30.0536
rwrist -3.55202
rhand -10.511 16.3398
rfingers 7.12502
rthumb 15.4916 -13.0595
lclavicle 5.02925e-014 -5.32743e-014
lhumerus -32.1302 -5.61044 78.0153
lradius 47.2123
lwrist 18.8536
lhand -5.98121 27.4967
lfingers 7.12502
lthumb 19.8504 56.503
rfemur -31.3749 1.93597 18.0688
rtibia 56.3832
rfoot -12.7207 -1.6175
rtoes -26.0065
lfemur -12.1462 -2.86573 -29.2096
ltibia 23.5739
lfoot -14.726 9.03086
ltoes -10.7702
504
root -11.4239 17.8131 6.31225 -1.13865 -44.1451 4.60998
lowerback 4.09525 2.51987 -6.18289
upperback 2.25199 3.08095 -2.73844
thorax -0.145637 1.48522 0.506249
lowerneck -7.77789 0.906876 -4.95871
upperneck 34.6918 1.99311 -0.462343
head 12.8026 -0.0266286 0.903675
rclavicle -4.79071e-014 3.18055e-015
rhumerus -33.6416 -3.68096 -81.3197
rradius 30.2491
rwrist -3.71973
rhand -10.4366 16.4002
rfingers 7.12502
rthumb 15.5631 -12.9936
lclavicle -4.79071e-014 3.18055e-015
lhumerus -32.1201 -5.76738 78.1415
lradius 47.4823
lwrist 18.91
lhand -6.10944 27.3716
lfingers 7.12502
lthumb 19.7271 56.3906
rfemur -31.4287 2.64485 18.0114
rtibia 54.9984
rfoot -12.9742 -1.24748
rtoes -22.9748
lfemur -12.1049 -2.9774 -29.0408
ltibia 23.7337
lfoot -14.8359 8.7944
ltoes -11.34
